<?xml version="1.0" standalone="no"?>
<!DOCTYPE svg PUBLIC "-//W3C//DTD SVG 20010904//EN">
<svg version="1.0" xmlns="http://www.w3.org/2000/svg" width="267.000000pt" height="267.000000pt" viewBox="0 0 267.000000 267.000000" preserveAspectRatio="xMidYMid meet">
    <metadata>Created by potrace 1.14, written by Peter Selinger 2001-2017</metadata>
    <g transform="translate(0.000000,267.000000) scale(0.100000,-0.100000)" fill="#000000" stroke="none">
        <path d="M687 2654 c-345 -66 -606 -328 -671 -674 -14 -73 -16 -165 -13 -675
        2 -324 7 -606 11 -625 15 -68 67 -195 105 -259 100 -168 269 -306 446 -366
        128 -43 174 -46 760 -45 308 0 576 3 595 5 96 10 215 50 309 101 36 20 68 39
        71 43 3 4 16 15 30 24 42 29 150 139 173 177 11 19 24 37 27 40 14 12 70 131
        88 190 39 119 41 168 39 785 -3 591 -3 601 -26 675 -94 311 -327 530 -637 599
        -72 16 -139 18 -660 18 -435 0 -596 -3 -647 -13z"/>
    </g>
</svg>
